<?xml version="1.0" encoding="utf-8"?>
<svg xmlns="http://www.w3.org/2000/svg" viewBox="-1246.7689 -323.9768 2986.8276 974.1576" width="2986.83px" height="974.158px" preserveAspectRatio="none"><g id="object-12" transform="matrix(1, 0, 0, 1, 0, 1.1368683772161603e-13)"><g id="object-11" transform="matrix(3.940552, 0, 0, 3.940552, 441.095116, -304.300217)" style=""><path d="M291.49 89.98l.27-.35.05-.06M229.6 46.98l-1.19 1.11-4.99 4.73-2.26 2.27-3.28 3.2-2.01 1.88-.86.75-1.59 1.35-.56.42-.52.37-.19.11-.33.17.33-.17.19-.12.53-.38.57-.43 1.61-1.4.86-.77 2.05-1.93 3.32-3.3 1.15-1.17 2.14-2.13 1.03-1.02 1.77-1.68.82-.77 1.2-1.06.26-.22.36-.28.27-.14M293.94.03l.95.01 1.68.04.81.03 1.44.08 1.38.09 2.27.33 1.09.19 1.96.57 3.03 1.22 2.01.93 3.63 2.25 1.75 1.18 3.08 2.73 1.47 1.42 2.5 3.15 1.18 1.63 1.9 3.53.87 1.8 1.28 3.86.56 1.96.63 4.13.23 2.1-.05 4.35-.86 6.72-.32 1.6-.68 2.78-.36 1.34-.64 1.78-.01-.13-.11-.24-.13.02-.33.12-.25.19-.54.46-.34.37-.73.81-.43.54-.9 1.16-.51.71-1.53 2.04-.93 1.13-.43.45-.83.84-.39.31-.76.56-.37.18-1.44.46-.74-.13-1.5-.49-.86-.57-1.36-.81-1.12-.59-.61-.3-2.54-1.18-1.11-.42-3.16-1.67-.87-.65-.33-.32-.57-.62-.14-.28-.61-1.01-.58-.83-.34-.45-1.48-1.86-.76-.82-1.94-2.6-.45-.83-.14-.36-.22-.68v-.24l-.59-1.83-.86-1.38-.55-.55-1.41-1.61-.59-.89v-.19l-.69-1.45-1.01-1.12-.62-.51-1.28-.97-.59-.28-.57-.25-.24-.06-.45-.05-.16.06-1.89.24-1.44-.18-.66-.21-1.27-.5-.43-.33-.7-.69v-.37l-.63-1.8-.94-1.08-.64-.42-1.36-.74-.73-.17-1.48-.2-.68.17-1.81.17-.41-.09-.13-.09-.19-.2v-.14l-.44-.53-.65-.04-.41.16-1.06.13-.44-.23v-.26l-.23-.33-.37-.16-.27-.04-1.28-.09-.82.12-1.55.12-.78-.1-.3-.16-.57-.4-.24-.33-.48-.76-.24-.54-1.07-1.84-.35-.43-.15-.13-.29-.21h-.06l1.08-1.05 2.98-2.88 1.42-1.36 2.45-2.29 1.17-1.08 2.03-1.8.98-.85 1.72-1.39.83-.66 1.52-1.08 4.27-2.53.81-.41 1.39-.68.66-.32 1.17-.51 1.14-.48 2.07-.55 1.08-.22 2.56-.16.71-.03 1.66-.01m-50.64 37.3l-2.4 2.31-1.03.95-.99.9-.44.39-.83.71-.34.28-.56.48.39-.36.76-.72 1.78-1.7.94-.9 2.1-2.03 1.09-1.05 2.36-2.3 3.74-3.69z" fill="rgba(43,164,105,1)" id="object-0"/><path d="M48 145.63l1 .18 1.94.7 2.73 1.58.36.27 1.05.9.58.51 1.44 1.33.77.71 1.77 1.69.92.88 2.03 1.98 2.09 2.04 4.68 4.69 1.71 1.72-1.47-1.48-2.23-2.2-1.04-1.02-2.04-1.99-.93-.89-1.79-1.71-.77-.72-1.47-1.35-.59-.52-1.07-.92-.37-.27-.6-.43-.11.01-.85.66-.32 1-.04.69.02 1.49.14.83.36 1.7.32.83.41 1.63.16 1.27.02.69-.04 2.9-.2 1.43-.52 2.77-.39 1.06-.41.98-.24.36-.48.63-.27.14-1.39.07-.63-.23-.38-.21-.83-.48-.5-.35-1.07-.77-.65-.5-1.37-1.1-.82-.68-1.72-1.45-1.01-.87-2.13-1.84-1.23-1.09-4.99-4.52-2.63-2.54.85-2.6.31-.95.97-1.67.54-.79 1.37-1.33.72-.62 1.66-.97.86-.44 1.87-.59.95-.25 1.99-.18 1-.04m-18.97 2.76l.37.97.77 1.5-.19-.24-.24-.35-.41-.65-.1-.25-.54-1.75-.14-.69m7.63-22.81l-1.17.82-2.35 2.19-.55.55-.94 1.07-.94 1.31.59-.92 1.38-1.91.84-.83 1.76-1.57 1.02-.66 2.12-1.23.36-.14m7.36-1.94l.09-.02.11-.01m258.98-41.73l-1.38 1.22-2.63 2.43-1.28 1.2-2.25 2.18-1.05 1.04-1.61 1.7-.35.38-.53.62-.53.7-.11.18-.5.61-.29.34-.82.9-.44.49-1.11 1.15-.58.61-1.35 1.36-1.4 1.41-3.35 3.27-5.5 5.23 5.5-5.23 3.35-3.28 1.4-1.41 1.35-1.37.58-.61 1.11-1.16.44-.48.82-.91.29-.35.5-.61.11-.18 1.2-1.53 1.26-1.39.8-.81 1.71-1.7.94-.89 1.95-1.81.99-.88 2.87-2.52m23.77-27.06l.02.16-.15.59-.1.34-.41.94-.93 1.82-.34.63-.84 1.31-.46.67-1.09 1.44-.58.74-1.37 1.6-.72.82-1.68 1.79-.89.92-2.03 2.03-1.06 1.04-2.41 2.29-1.26 1.18-2.83 2.59-.31.27-2.89-2.99-2.55-3.09-1.15-1.92-.3-.86-.4-1.65.09-.69.38-1.3.49-.5 2.18-1.47 1.56-.32.9.14.53-.18.22-.36v-.25l.66-.51.97-.07.62.12.52.03-.05-.12-.2-.13-.52-.28-.42-.2-.95-.42-.61-.24-3.47-1.87-.08-.07 3.12 1.65 1.11.42 2.54 1.18.61.3 1.12.59 1.36.81.86.57 1.5.49.74.13 1.44-.46.37-.18.76-.56.39-.31.83-.84.43-.45.93-1.13 1.53-2.04.51-.71.9-1.16.43-.54.73-.81.34-.37.54-.46.25-.19.33-.12.13-.02z" fill="rgba(59,163,112,1)" id="object-1"/><path d="M257.64 20.55l.15.13.35.43 1.07 1.84.24.54.48.76.24.33.57.4.3.16.78.1 1.55-.12.82-.12 1.28.09.27.04.37.16.23.33v.26l.44.23 1.06-.13.41-.16.65.04.44.53v.14l.19.2.13.09.41.09 1.81-.17.68-.17 1.48.2.73.17 1.36.74.64.42.94 1.08.63 1.8v.37l.7.69.43.33 1.27.5.66.21 1.44.18 1.89-.24.16-.06.45.05.24.06.57.25.59.28 1.28.97.62.51 1.01 1.12.69 1.45v.19l.59.89 1.41 1.61.55.55.86 1.38.59 1.83v.24l.22.68.14.36.45.83 1.94 2.6.76.82 1.48 1.86.34.45.58.83.61 1.01.14.28.61.65.35.33.93.7 3.47 1.87.61.24.95.42.42.2.52.28.2.13.05.12-.52-.03-.62-.12-.97.07-.66.51v.25l-.22.36-.53.18-.9-.14-1.56.32-2.18 1.47-.49.5-.38 1.3-.09.69.4 1.65.2.58-.19-.33-.19-.41-1.86-2.53-1.7-1.49-.82-.39-2.26-1.21-.59-.37-.21-.16-.36-.29-.07-.1-.47-.43-.55-.4-.36-.24-1.66-1.03-.96-.53-3.74-2.13-1.85-1.14-.63-.47-1.07-.87-.29-.36-.42-.66v-.29l-.73-1.11-1.08-.81-.69-.32-1.77-1.27-.73-1.01v-.44l-.27-.95-.39-.22-.25.16-.75.17-.41-.16-.09-.2-1.03-1-1.25-.72-.84-.37-1.81-.75-1.05-.36-2.2-.73-1.17-.33-4.86-1.25-2.29-.38-2.23-.33-.99-.08-1.88-.1-.74.05-1.17.09-1.07.08-.62.04-2.72.19-1.36.09-4.15.87-1.39.59-.74.42-1.52.91-.83.6-.99.74.04-.03.34-.28.83-.71.44-.39.99-.9 1.03-.95 2.4-2.31 7.53-7.71 1.18-1.27 2.22-2.32 1.06-1.11 1.84-1.83.85-.84 1.24-1.15.27-.23.38-.31.33-.19h.1m-34.55 33.1l-.61.62 1.23-1.24.33-.32z" fill="rgba(52,171,115,1)" id="object-2"/><path d="M247.85 132.66l-1.98 1.91-1.01.97-2.14 2.06-2.18 2.09-4.56 4.35-6.63 6.3-2.11 1.99-4.57 4.35-2.29 2.19-4.54 4.36-2.21 2.14-3.97 3.85-.93.91-1.67 1.63-2.14 2.11 2.14-2.11 1.66-1.63.93-.91 3.96-3.85 2.21-2.14 4.52-4.36 2.28-2.19 4.55-4.35 2.1-1.99 5.51-5.24 3.46-3.29 1.62-1.54 3.19-3.03 1.49-1.43 2.93-2.79.61-.58m-220.88-.33l-.44 1.15-.56 2.51-.34 4.06-.01 1.66.4 3.55.13.84.25 1.21-.07-.19-.82-2.99-.14-1.58-.09-3.21.23-1.68.94-4.11.98-2.44.28-.44m13.02-9.38l-1.36.29-2.47.86-.83.34.29-.19 1.52-.72.81-.25 1.71-.43 1.02-.14 2.01-.21m.2-.03l1.4-.08-1.4.08m247.37-30.3l-.11.18-.5.61-.29.35-.82.91-.44.48-1.11 1.16-.58.61-1.35 1.37-1.4 1.41-3.35 3.28-5.5 5.23-1.9 1.79-3.18 3 1.02-.99 1.51-1.49 2.94-2.9 1.38-1.38 2.74-2.72 1.34-1.35 2.97-3 1.84-1.85.84-.85 3.2-3.24 1.33-1.36.04-.04m-38.39-51.2l.99.08 2.23.33 2.29.38 4.86 1.25 1.17.33 2.2.73 1.05.36 1.81.75.84.37 1.25.72 1.03 1 .09.2.41.16.75-.17.25-.16.39.22.27.95v.44l.73 1.01 1.77 1.27.69.32 1.08.81.73 1.11v.29l.42.66.29.36 1.07.87.63.47 1.85 1.14 3.74 2.13.96.53 1.66 1.03.36.24.55.4.47.43.07.1.36.29.21.16.59.37 2.26 1.21.82.39 1.7 1.49 1.86 2.53.19.41.57.99.31.51.74 1.09 2.44 3.03 2.86 3.04-7.24 6.36-.99.88-1.55 1.44.27-.3 1.24-1.34.41-.48.69-.84.17-.25.21-.38-.06-.05-.22.01-.26.13-2.62.72-1.63-.1-.66-.29-1.18-.75-.33-.58-.28-.6-.06-.35-.06-.71.07-.4-.52-.86-.88-1.05-.64-.71-1.42-1.52-.86-.87-1.82-1.82-.99-.97-5.72-4.95-4.12-3.11-2.03-1.33-2.01-1.29-.95-.56-1.88-1.07-.86-.44-1.68-.8-.74-.29-1.39-.49-.57-.11-1.13-.35-.95-.4-.53-.26-2.23-1.18-1.03-.68-3.76-1.87-1.38-.48-.65-.18-1.26-.3-.54-.06-3.61-.67-2.43-.67-.82-.35-1.48-.55-1.17-.39-.63-.18-2.57-.71-1.09-.21-3.2-.27-.96.15-.49.19-1 .43-.55.34-1.13.77-.17.14.03-.03 1.14-1.06 2.02-1.74.96-.81 1.72-1.29.83-.6 1.52-.91.74-.42 1.39-.59 4.15-.87 1.36-.09 2.72-.19.62-.04 1.07-.08 1.17-.09.74-.05m-39.24 24.86l.52-.37.56-.42.94-.8-.98.85-.54.4-.5.35-.18.11-.32.16h-.02l.33-.17M95.34 191.22v-.03l.52.77 1.27.81-1.27-.8m-.9-1.79l-.62-.79-.47-.56-1.05-1.22-.67-.76-1.44-1.59-.84-.91-1.77-1.9-.99-1.05-2.05-2.17-1.11-1.16-4.67-4.82-2.56-2.59-3.71-3.75-2.34-2.34-1.08-1.08-2.1-2.1-.95-.93-1.82-1.8-.78-.78-1.49-1.46-.61-.58-1.11-1.07-.4-.37-.69-.64-.17-.14-.21-.15.08.12.7 1.24.11.51h-.17l-.06.34.14.52.15.39.35.84.23.51.51 1.07.31.58 1.15 2.49.48 1.55.12.87.17 1.83-.01 1.19-.02 1.24-.03.71-.08 1.5-.05.87-.16 2.26-.1 1.27-.06.53-.24 1.86-.17.58-.35.96-.24.23-.53.31h-.35l-.47-.17-.48-.27-.32-.21-1.48-1.04-1-.77-2.16-1.69-1.28-1.04-2.66-2.2-1.46-1.24-3-2.56-1.55-1.37-3.15-2.77-1.57-1.41-3.12-2.84-1.49-1.39-2.93-2.74-1.33-1.29-1.68-2.04.38.42 1.11 1.17 1.16 1.2 2.88 2.77 4.99 4.52 1.23 1.09 2.13 1.84 1.01.87 1.72 1.45.82.68 1.37 1.1.65.5 1.07.77.5.35.83.48.38.21.63.23 1.39-.07.27-.14.48-.63.24-.36.41-.98.39-1.06.52-2.77.2-1.43.04-2.9-.02-.69-.16-1.27-.41-1.63-.32-.83-.36-1.7-.14-.83-.02-1.49.04-.69.32-1 .85-.66.11-.01.6.43.37.27 1.07.92.59.52 1.47 1.35.77.72 1.79 1.71.93.89 2.04 1.99 1.04 1.02 2.23 2.2 2.25 2.25 4.75 4.81 2.37 2.42 4.56 4.72 1.1 1.15 2.06 2.18 1.01 1.07 1.82 1.96.88.95 1.51 1.67.71.79 1.12 1.31.51.6.67.87.42.73v.03M211.29 63.56l-.5.37-.34.28-.73.62-.44.4-.93.84-.53.5-2.27 2.18-1.31 1.32-2.7 2.76 2.7-2.76 1.31-1.32 2.26-2.18.53-.5.93-.84.44-.4.73-.62.34-.28.5-.37.46-.22h.01z" fill="rgba(68,176,124,1)" id="object-3"/><path d="M59.47 153.62l.17.14.69.64.4.37 1.11 1.07.61.58 1.49 1.46.78.78 1.82 1.8.95.93 2.1 2.1 1.08 1.08 2.34 2.34 3.71 3.75 2.56 2.59 4.67 4.82 1.11 1.16 2.05 2.17.99 1.05 1.77 1.9.84.91 1.44 1.59.67.76 1.05 1.22h0l-1-1.17-.66-.73-1.4-1.56-.83-.89-1.73-1.87-.97-1.03-2.01-2.11-1.09-1.13-4.58-4.72-2.51-2.53-3.55-3.57-2.15-2.15-.95-.94-1.81-1.81-.77-.76-1.45-1.42-.57-.56-1.05-1.01-.36-.34-.61-.56-.13-.11-.14-.08.11.14.37.43.38.42 2.29 2.57 1.28 1.53.53.7.99 1.36.4.65.74 1.27.28.62.9 2.5.2 1.39.16 1.44.03.78.03 1.64-.02.92-.27 4.18-.34 2.85-.19 1.17-.2 1.12-.1.44-.19.79-.08.25-.17.37-.07-.01-.13-.15-.04-.31-.34-.32-.4.28-.23.37-.43.15-.48-.13-.35-.18-.78-.45-.51-.36-1.1-.79-.68-.53-1.45-1.16-.86-.73-1.83-1.54-1.06-.93-2.24-1.96-1.27-1.14-2.67-2.39-1.51-1.36-4.26-3.87-2.58-2.34-1.17-1.06-.95-.86 1.99 1.74 1.55 1.37 3 2.56 1.46 1.24 2.66 2.2 1.28 1.04 2.16 1.69 1 .77 1.48 1.04.32.21.48.27.47.17h.35l.53-.31.24-.23.35-.96.17-.58.24-1.86.06-.53.1-1.27.16-2.26.05-.87.08-1.5.03-.71.02-1.24.01-1.19-.17-1.83-.12-.87-.48-1.55-1.15-2.49-.31-.58-.51-1.07-.23-.51-.35-.84-.15-.39-.14-.52.06-.34h.17l-.11-.51-.7-1.24-.08-.12m-32.7-6.57l.5 1.46 1.54 2.73 2.13 2.58-.01-.01-1.46-1.6-.51-.65-.9-1.22-.3-.55-.87-2.05-.34-1.26-.18-.92m222.69-13.71l-1.38 1.32-2.93 2.79-1.49 1.43-3.19 3.03-1.62 1.54-3.46 3.29-5.51 5.24 8.78-8.35 5.49-5.23 2.57-2.45 3.08-2.93M25.6 142.13l-.12-1.31.02-1.06.02-.3m.22-2.02l-.18 1.29.07-1.07.18-1.02.44-2 .33-.96.05-.12m213.93-87.33l.63.18 1.17.39 1.48.55.82.35 2.43.67 3.61.67.54.06 1.26.3.65.18 1.38.48 3.76 1.87 1.03.68 2.23 1.18.53.26.95.4 1.13.35.57.11 1.39.49.74.29 1.68.8.86.44 1.88 1.07.95.56 2.01 1.29 2.03 1.33 4.12 3.11 5.72 4.95.99.97 1.82 1.82.86.87 1.42 1.52.64.71.88 1.05.52.86-.07.4.06.71.06.35.28.6.33.58 1.18.75.66.29 1.63.1 2.62-.72.26-.13.22-.01.06.05-.21.38-.17.25-.69.84-.41.48-1.24 1.34-.69.74-1.83 1.92-.99 1.03-1.96 2.01v-4.56l-.11-2.93-.23-1.47-.24-.61-.59-1.17-.48-.61-1.1-1.26-4.33-4.33-7.17.6-2.31.18-1.31.07h-.57l-2.1-.07-.98-.22-1.97-.57-1.23-.54-1.29-.58-.76-.37-1.6-.78-.95-.48-3.22-1.54-2.02-.9-.88-.36-1.66-.65-.62-.2-1.08-.31h-.24l-2.01-.48-1.1-.74-.4-.54-.68-1.17-.15-.7-.15-1.45.15-.78-.02-3.08-.54-2.25-.48-1.1-1.08-2.15-.68-.91-1.46-1.68-.82-.53-1.34-.73-1.12-.49-.61-.22-.81-.26m-11.17 1.45l.09-.07v-.01m.22-.17l.43-.36h.01m1.16-.79l-.8.54.76-.52.55-.34.04-.02m1.01-.43l-1 .43.95-.41.49-.19h.05m.92-.15l-.56.09.55-.09z" fill="rgba(86,184,137,1)" id="object-4"/><path d="M63.69 157.86l.13.11.61.56.36.34 1.05 1.01.57.56 1.45 1.42.77.76 1.81 1.81.95.94 2.15 2.15 3.55 3.57 2.51 2.53 4.58 4.72.13.14-.45-.32-.29-.08-.48.02-.07.25-.28.94-.27.89-.16.55-.71 2.37-.37 1.24-1.35 3.3-1.17 2.04-.65.85-1.32 1.54-.64.5-1.26.77h-.52l-.44-.2-.48-.32-.32-.25-.71-.55-.42-.35-.9-.75-.51-.45-2.21-1.93-1.27-1.17-2.64-2.45-1.4-1.34-2.29-2.18-1.7-1.6-.92-.86-.48-.44.07.06 2.24 1.96 1.06.93 1.83 1.54.86.73 1.45 1.16.68.53 1.1.79.51.36.78.45.35.18.48.13.43-.15.23-.37.4-.28.34.32.04.31.13.15.07.01.17-.37.08-.25.19-.79.1-.44.2-1.12.19-1.17.34-2.85.27-4.18.02-.92-.03-1.64-.03-.78-.16-1.44-.2-1.39-.9-2.5-.28-.62-.74-1.27-.4-.65-.99-1.36-.53-.7-1.28-1.53-2.29-2.57-.38-.42-.37-.43-.11-.14m-36-8.14l.21.37-.04-.05-.42-.65-.1-.24-.26-.86m.24-16.05l.02-.05.01-.01m6.97-8.22l-.92.65-1.64 1.44-.78.74-1.34 1.6-.64.83-1.04 1.75-.41.76.77-1.76.64-.99 1.38-1.91.84-.83 1.76-1.57 1.02-.66 2.12-1.23.36-.14m7.36-1.94l.09-.02.11-.01m248.37-39.08l.11 2.93-.11-2.92-.13-.87m-43.14-21.17l-.15.78.15 1.45.15.7.68 1.17.4.54 1.1.74 2.01.48h.24l1.08.31.62.2 1.66.65.88.36 2.02.9 3.22 1.54.95.48 1.6.78.76.37 1.29.58 1.23.54 1.97.57.98.22 2.1.07h.57l1.28-.07-.76.15-.94.38-1.82.89-.88.66-1.78 1.47-.98 1-1.69 1.57-1.04.74-.5.24-1.02.41-.54.09-1.13.12-.64-.02-3.11-.37-1.97-.46-.82-.3-1.53-.64-.49-.35-.77-.7v-.34l-.34-.48-.52-.36-.39-.19-1.83-.76-1.17-.3-3.56-1.18-1.07-.45-.44-.22-.82-.44-.26-.19-.98-.87-.25-.55.11-.35.38-.77.47-.58.5-.62.33-.37.71-.79.43-.48 2.65-3.58 1.16-2.36.27-1.19.24-1.55M292 80.04v.02l-.16-.42m-.08-.21v.01l-.04-.08m-2.78-3.62L287.03 74l-1.12-.79-.58-.25-1.18-.4-.69-.09-1.5-.13h-.08l3.38-.28M248.94 56.4v.22l-.16-.9m-1.94-4.82l.67 1.32-1.1-1.89m-3.87-3.28l1.34.73.82.53 1.46 1.68.05.07-1.31-1.45-.9-.64-1.57-.97M95.31 191.35l-.01-.33-.49-.97-.38-.56.54.7.37.65v.38l.52.75 1.27.8-1.28-.75z" fill="rgba(115,196,155,1)" id="object-5"/><path d="M46.22 168.01l1.97 1.78 4.08 3.74 2.02 1.86 3.82 3.55.92.86 1.7 1.6 2.29 2.18 1.4 1.34 2.64 2.45 1.27 1.17 2.21 1.93.51.45.9.75.42.35.71.55.32.25.48.32.44.2h.52l1.26-.77.64-.5 1.32-1.54.65-.85 1.17-2.04 1.35-3.3.37-1.24.71-2.37.16-.55.27-.89.28-.94.07-.25.48-.02.29.08.93.65.52.41 1.4 1.34 2.65 2.79.81.9 1.48 1.72.71.83.41.52-.58-.54-1.41-1.25-.67-.5-.2-.08-.31-.07-.04.12.01.35.12.33.7 2.25.32 1.37.07.63.08 2.39-.31 1.08-.87 2.09-.82 1.04-.88 1.05-.55.53-1.15 1.09-.69.58-3.13 2.64-15.33-14.79-6.87-6.55-4.93-4.64-2.44-2.26-4.81-4.46-2.17-1.98-1.38-1.25M27.3 149.31l.42.65.25.35.68.86.37.46.93 1.04.49.54 1.14 1.2 1.19 1.24 2.93 2.83 4.56 4.18-.06-.06-4.81-4.39-2.8-2.72-1.15-1.19-1.09-1.15-.48-.53-.89-1.01-.36-.44-.66-.84-.24-.35-.4-.64-.1-.24h-.01m220.08-85.25l-2.65 3.58-.43.48-.71.79-.33.37-.5.62-.47.58-.38.77-.11.35.25.55.98.87.26.19.82.44.44.22 1.07.45 3.56 1.18 1.17.3 1.83.76.39.19.52.36.34.48v.34l.77.7.49.35 1.53.64.82.3 1.97.46 3.11.37.64.02 1.13-.12.54-.09 1.02-.41.5-.24 1.04-.74 1.69-1.57.98-1 1.78-1.47.88-.66 1.78-.87-.75.42-1.08.67-.59.45-1.21.98-.7.63-1.46 1.35-.86.83-1.81 1.78-1.08 1.08-3.15 3.05-1.85 1.66-.82.66-1.58 1.18-.72.43-1.38.74-.64.21-1.27.31h-.61l-1.21-.09-.62-.18-1.24-.47-.65-.37-1.34-.82-.74-.54-3.72-2.54-1.32-.84-.61-.38-1.18-.7-.48-.27-1.8-1.13-.91-.74-.31-.37-.53-.77-.11-.41-.13-.84.09-.46.27-.96.29-.54.69-1.12.5-.64 1.11-1.32.71-.76 1.54-1.58.93-.89 2.51-2.54 1.4-1.56.56-.73 1.06-1.42.4-.68.23-.45m26.78 10.43l.37-.15 1.25-.25m7.22-.27l.69.09.81.28-.87-.27-.74-.08-1.6-.1-1.06.02-1.83.06 2.15-.13h.95m-4.87.24l-.17.03.2-.04.53-.03m-29.13-18.23l.07.4-.27-.88z" fill="rgba(129,200,163,1)" id="object-6"/><path d="M115.34 216.36l-.36.56-.62.24-.54.06-1.24.08-.88-.02-.37-.01.74-.03.64-.03 1.06-.15.49-.09.66-.25.27-.14.15-.35m.33-.52l.03-.02.16-.05m-25.95-30.69l.2.08.67.5 1.41 1.25.86.8 1.36 1.64.29.38.39.64.25.72v.34l.52.71 1.27.76.49.16.82.87.64 1.69.04.6.27 1.01.16.48.45.69-.32.34-.34.75v.34l-.31.78-.49.76-.36.47-1.71 2.03-1.09 1.06-1.49 1.57-.84.98-.31.43-.55.8-.14.29-.18.52.02.03-.73-.38-.61-.34-.84-.45-.37-.18-.39-.12-.1-.01-.84-.7-1.71-1.52-1.75-1.57-.95-.86-1.03-.96 3.02-2.55.69-.58 1.15-1.09.55-.53.88-1.05.82-1.04.87-2.09.31-1.08-.08-2.39-.07-.63-.32-1.37-.7-2.25-.12-.33-.01-.35.04-.12m14.45 23.24l.32-.12.57-.25.16-.18.16-.25-.14.24-.15.17-.52.26-.29.12-.81.14-1.52.09h-.43l1.75-.08m4.95-5.33l-.01.01.01-.02m.13-.77l-.02.08-.1-.2m-3.02-1.54l.98.33.36.13-.34-.11-1.42-.46m-3.59-1.12l.88.35-.68-.15-.54-.42v-.03m-72.12-47.84l.36.44.89 1.01.48.53 1.09 1.15 1.15 1.19 2.8 2.72 4.81 4.39.79.7 1.85 1.66.96.86 2.11 1.92 2.17 1.98 4.81 4.46 2.44 2.26 4.93 4.64 4.39 4.19-3.97-3.77-2.53-2.37-2.49-2.33-1.18-1.1-2.3-2.14-1.05-.97-2.03-1.87-.89-.81-1.68-1.53-.69-.61-2.94-2.63-1.79-1.61-.81-.73-3.06-2.78-1.25-1.16-2.33-2.18-.93-.91-1.7-1.72-.66-.73-1.21-1.37-.45-.6-.39-.57m220.25-89.61l-.24.65-.72 1.34-.4.68-1.06 1.42-.56.73-1.4 1.56-2.51 2.54-.93.89-1.54 1.58-.71.76-1.11 1.32-.5.64-.69 1.12-.29.54-.27.96-.09.46.13.84.11.41.53.77.31.37.91.74 1.8 1.13.48.27 1.18.7.61.38 1.32.84 3.72 2.54.74.54 1.34.82.65.37 1.24.47.62.18 1.21.09h.61l1.27-.31.64-.21 1.38-.74.72-.43 1.58-1.18.82-.66 1.64-1.48-.68.66-1.15 1.12-2.41 2.34-1.36 1.32-2.81 2.74-1.57 1.54-3.26 3.18-1.8 1.76-3.73 3.65-2.05 2.01-4.24 4.15-2.32 2.28-4.78 4.68-2.61 2.56-9.86 9.66-6.09 5.97-2.82 2.76-5.48 5.37-2.52 2.47-4.91 4.8-2.24 2.19-4.35 4.26-1.98 1.93-3.83 3.74-1.73 1.68-3.33 3.25-1.5 1.45-2.87 2.8-1.27 1.23-1.97 1.9.12-.11.98-.99 2.5-2.49 1.33-1.33 3.1-3.07 1.61-1.59 3.6-3.54 1.85-1.82 3.97-3.9 2.03-1.99 4.24-4.15 13.21-12.86 2.22-2.15 4.25-4.15 2.09-2.05 3.93-3.86 1.92-1.88 3.52-3.49 1.7-1.68 3.02-3.02 1.44-1.45 2.44-2.46 1.13-1.16 1.76-1.83.4-.41.65-.69.3-.33.45-.5.2-.22.24-.31.11-.21-.14-.14-.66.14-1.21.73-.2.17-.29.16-.02-.66-.37-.76-.33-.49-.75-1.04-.49-.59-1.03-1.22-.59-.64-2.52-2.6-1.31-1.16-1.3-1.12-.61-.47-1.19-.87-.52-.31-1.76-1.13-.86-.7-.25-.37-.39-.76v-.44l.13-.93.29-.57.73-1.22.6-.75 1.38-1.62.95-1.01 2.08-2.14 1.33-1.3 1.37-1.35.76-.74 1.58-1.53.86-.83 4.8-4.69 2.62-2.67 1.05-1.14 1.94-2.17.73-.95 1.3-1.79.45-.81.63-1.29M26.76 133.26l-.56 2.51-.34 4.06-.01 1.66.4 3.54.12.84.31 1.49.22.72-.23-.53-.33-1.22-.66-3.33-.2-2.18.02-1.06.13-2.1.18-1.02.44-2 .33-.96.6-1.52m52.75 9.68l1.78 1.9-1.78-1.9-1.07-1.17-2.02-2.13 2.02 2.13m-51.65-8.57l.12-.31.08-.14m13.55-10.58l-1.36.29-2.47.86-.83.34.29-.19 1.52-.72.81-.25 1.71-.43 1.02-.14 2.01-.21m.2-.03l1.4-.08-1.4.08m186.51-12.83h-.02l-.48-.09m2.13-.14l-1.14.18-.33.03.36-.04 1.18-.19.41-.09m39.21-32.55l-.69.6-.42.38-.9.81-.53.5-1.13 1.05-.67.62-1.39 1.33-.81.77-.79.76.11-.11 1.08-1.08 1.81-1.78.86-.83 1.46-1.35.7-.63 1.21-.98.24-.18m4.48-2.03l.2-.04.58-.1 1.31-.1 2.29-.07-3.95.26M115.56 215.8l.08-.07-.11.12-.19.31v-.1m-16.59-7.35l-.5.11-.89.28-.52.25v-.01l.55-.39.63-.23.41-.09 1.89-.29h.54z" fill="rgba(152,212,179,1)" id="object-7"/><path d="M100.06 209.63l.28.71v.27l-.46.44-1.1.29h-.43l-.49-.29-.17-.19.15-.52.17-.28.54-.43.85-.29h.26m1.49-11.81l-.21.66-.2.31v.54l.54.42 1.81.39.21.07.98.33 1.81.59.66.22.86.45.35.23.27.53.06.27-.32.65-1.13 1.15-.41.34-.65.94-.44 1.34v.24l-.24.37-.16.18-.57.25-.32.12-.9.14-1.75.08h-1.08l-1.89.29-.41.09-.63.23-.55.39-.19.3-.79.4-.44.16-1.04.11-.52.02-.96-.19-.43-.14-.53-.5-.07-.11.18-.52.14-.29.55-.8.31-.43.84-.98 1.49-1.57 1.09-1.06 1.71-2.03.36-.47.49-.76.31-.78v-.34l.34-.75.81-.87.36-.22m71.56-60.92l-2.83 2.73-5.14 4.95-2.49 2.4-4.5 4.31-2.17 2.08-3.89 3.71-1.88 1.79-3.34 3.15-1.6 1.52-2.69 2.5 1.29-1.21.92-.87 1.89-1.8 1.02-.97 1.69-1.61 1.27-1.21.7-.68 2.99-2.86 1.74-1.66 3.63-3.47 2.01-1.93 4.15-3.97 2.24-2.14 4.57-4.38 2.4-2.31 2.09-1.99m55.49-53.27l-1.37 1.35-1.33 1.3-2.08 2.14-.95 1.01-1.38 1.62-.6.75-.73 1.22-.29.57-.13.93v.44l.39.76.25.37.86.7 1.76 1.13.52.31 1.19.87.61.47 1.3 1.12 1.31 1.16 2.52 2.6.59.64 1.03 1.22.49.59.75 1.04.33.49.37.76.02.7-.11.11-.5.27-.28.15-.77.3-2.84.83-.83.18-1.18.19-.52.06-.71-.12-.31-.11-.45-.51-.59-1.27-.17-.45-.42-.68-.22-.31-.56-.44-.3-.18-.75-.22-1.42-.13h-.88l-1.4-.44-1.25-1.17-.22-.57-.84-.51-.25-.08-.65-.01-1.2.2-1 .26-.44.02.19-.16.11-.33.11-.74-.12-.47-.6-1.41-.49-.59h-.21l-.46.26.48-1 .15-.25-.22.01-.2.08-.86.65-.51.4-1.46 1.24-.79.69-2 1.79-1.06.95-2.47 2.29-.61.56 2.25-2.16 4.9-4.71 4.83-4.64 2.3-2.21 4.5-4.32 2.09-2.01 4.07-3.91 1.83-1.76.2-.19m16.58-23.61l.21.76.16 1.43.03.71-.27 1.43-.19.72-.18.37.08-.28.43-2.43-.12-1.25-.41-2.25z" fill="rgba(165,217,190,1)" id="object-8"/><path d="M 216.03 97.93 L 216.63 99.34 L 216.75 99.81 L 216.64 100.55 L 216.53 100.88 L 216.06 101.27 L 215.8 101.42 L 215.13 101.38 L 214.79 101.3 L 214.08 100.74 L 213.89 100.55 L 213.81 99.89 L 213.81 99.54 L 214.03 98.76 L 214.17 98.38 L 214.59 97.77 L 215.33 97.34 L 215.54 97.34 L 216.03 97.93 Z" fill="rgba(180,223,199,1)" id="object-9"/><path d="M95.84 240.47l-1.81-.52-4.06-1.59-2.06-.86-4.1-2.03-2-1.05-3.57-2.18-.83-.54-1.46-1.05-1.82-1.5-.82-.78-1.54-1.21-.35-.25-.57-.35-.56-.22h-.11l-.63-.47-.37-.31-1.03-.98-.55-.55-1.31-1.36-2.11-2.33-.73-.82-1.4-1.51-.68-.72-1.21-1.19-.57-.54-.88-.75-.8-.47h-.14l-.62-.39-.36-.26-.98-.82-.52-.45-1.21-1.14-1.93-1.94-.65-.69-1.27-1.25-.62-.6-1.1-.99-.51-.45-.81-.63-.73-.39h-.07l-.28-.17-.16-.12-.46-.38-.51-.43-1.45-1.4-.78-.77-1.87-1.93-3.07-3.3-1.06-1.17-2.02-2.13-.98-1.02-1.72-1.68-.8-.77-1.21-1.06-.27-.22-.4-.28-.38-.17h-.1l-.43-.26-.25-.17-.69-.57-.38-.31-.92-.83-.49-.44-1.1-1.05-1.14-1.09-2.66-2.65-1.36-1.38-2.83-2.94-1.41-1.48-2.69-2.89-1.29-1.41-2.19-2.48-.5-.58-.85-1.02-.4-.48-.61-.79-.28-.37-.33-.52-.14-.44.15-.24-.1-.36-.64-.25h-.31l-.31-.27.07-.65.16-.25-.19-.83-.86-1.3-.41-.4-.44-.81v-.87l.17-.17-.06-.27-.62-.18h-.31l-.32-.44.07-1.06.16-.41-.08-.65-.61-.44h-.31l-.44-.22-.24-.53-.08-1.25-.08-.2-.12-1.09-.06-.63-.07-1.74-.03-.93-.02-2.14v-1.1l.02-2.28.02-1.14.06-2.17.04-1.05.1-1.79.05-.83.14-1.16.23-.75h.22l.17-.59-.21-1.41-.19-.61.04-.85.69-.54h.32l.34-.44-.06-1.06-.16-.41.03-.65.49-.44h.26l.26-.37-.07-.9-.07-.19.12-.71.1-.4.41-1.03.47-1.07 1.47-2.54.76-1.25 1.57-2.08.37-.44.64-.62.75-.4h.29l.31-.26-.08-.64-.09-.15.06-.45.06-.24.35-.6.42-.63 1.55-1.62.87-.85 2.22-1.89 1.17-.95 2.58-1.93 1.31-.95 2.63-1.74 1.3-.83 2.37-1.34 1.13-.6 1.81-.7.4-.13.65-.1.69.12.26.17.42-.08.28-.62V96l.55-.31 1.45.15.62.2.84-.05.54-.7v-.36l.68-.37 1.82.02.69.14 1.08-.05.73-.47v-.15l.46-.25.3-.11.93-.16 1.02-.14 2.76-.03 1.4.02 2.53.27.56.09.85.22.72.42.17.29.8.28 1.45-.09.49-.16 1.62.11 2.56.67.79.33 1.46.57.33.13.53.2.52.17 1 .41.07.06.66.19 1.41.31.52.1 1.28.53.69.32 1.66 1.01.88.58 2.08 1.54 1.1.84 2.56 2.11 1.34 1.13 3.09 2.73 1.61 1.44 3.67 3.38 1.91 1.78 4.29 4.08 7.19 6.94 1.49 1.45 2.86 2.77 1.41 1.36 2.68 2.57 1.31 1.25 2.43 2.31 1.18 1.12 2.12 1.99 1.01.95 1.75 1.61.83.76 1.31 1.18.6.54.83.69.61.43h.06l.28-.16.16-.11.46-.36.51-.41 1.48-1.31.8-.73 1.91-1.81 3.16-3.11 1.09-1.1 2.07-2.01.99-.95 1.73-1.59.8-.73 1.19-.99.25-.2.38-.27.34-.16h.06l.29-.18.17-.12.49-.41.54-.46 1.57-1.47.85-.82 2.04-2.05 3.37-3.49 1.16-1.24 2.23-2.25 1.07-1.08 1.88-1.79.88-.81 1.32-1.12.28-.23.44-.3.41-.18h.08l.43-.29.25-.18.74-.63.41-.36 1.02-.94.55-.5 1.26-1.21.65-.64 1.46-1.44.75-.74 1.61-1.63 5.26-5.44 1.83-1.92 3.42-3.52.82-.83 1.54-1.54.74-.75 1.36-1.33.65-.63 1.14-1.08.54-.51.88-.79.4-.35.58-.46.49-.29h.08l.36-.22.21-.15.61-.5.33-.28.82-.74.43-.39 1-.95 1.05-1 2.5-2.5 4.13-4.27 1.43-1.51 2.7-2.76 1.31-1.32 2.27-2.18.53-.5.93-.84.44-.4.73-.62.34-.28.5-.37.46-.22h.09l.32-.16.18-.11.5-.35.54-.4 1.5-1.3.81-.71 1.9-1.79 3.08-3.06 1.26-1.3 2.13-2.16 1.01-1.01 1.7-1.63.8-.76 1.37-1.17.65-.53 1.15-.77.55-.34 1.01-.43.5-.18.98-.15 3.33.27 1.41.26 2.42.79 1.15.44 1.91 1.18.9.64 1.44 1.6 1.66 2.87.56 1.33.46 2.54.12 1.25-.43 2.43-.33 1.21-1.34 2.38-3.04 3.59-.36.35-.9.87-.48.46-1.1 1.07-1.16 1.11-2.87 2.77-1.52 1.46-3.52 3.39-1.83 1.76-4.07 3.91-2.09 2.01-4.5 4.32-2.3 2.21-4.83 4.64-4.9 4.71-10.33 9.91-5.18 4.97-10.26 9.85-2.53 2.41-4.88 4.68-2.4 2.31-4.57 4.38-2.24 2.14-4.15 3.97-2.01 1.93-3.63 3.47-1.74 1.66-2.99 2.86-.7.68-1.27 1.21-1.69 1.61-1.02.97-1.89 1.8-.92.87-1.7 1.6-1.65 1.56-2.79 2.59-1.32 1.21-2.19 1.97-1.03.91-1.71 1.43-.81.66-1.33.98-.63.44-1.05.61-.51.27-.89.35-1.27.29-.68.1-1.1.08-.51.02-.78-.08-.36-.06-.5-.25-.45-.56-.14-.36-.65-.56-1.18-.39h-.2l-.78-.47-.44-.31-1.15-.98-.6-.55-1.37-1.36-2.14-2.33-.72-.83-1.4-1.5-.68-.72-1.23-1.19-.58-.54-.92-.75-.86-.47h-.16l-.84-.59-.5-.38-1.36-1.23-.74-.68-1.72-1.7-2.78-2.91-.95-1.03-1.83-1.88-.88-.9-1.55-1.48-.73-.68-1.11-.94-.97-.59h-.07l-.3-.18-.18-.11-.48-.38-.52-.44-1.49-1.39-.8-.78-1.89-1.93-3.09-3.3-1.07-1.17-2.02-2.13-.98-1.02-1.7-1.68-.8-.77-1.19-1.06-.26-.22-.39-.28-.37-.17h-.14l-.67-.38-.4-.25-1.07-.79-.58-.44-1.33-1.1-2.14-1.88-.95-.87-1.73-1.49-.85-.71-1.57-1.18-.77-.55-1.48-.91-.73-.42-1.45-.65-1.45-.59-3.1-.54-.81-.09-1.76-.06-2.91.07-1.4.08-2.21.24-1.02.14-1.71.43-.81.25-1.52.72-2.41 1.51-.92.65-1.64 1.44-.78.74-1.34 1.6-.64.83-1.04 1.75-.49.9-.75 1.89-.33.96-.44 2-.18 1.02-.13 2.1-.02 1.06.2 2.18.66 3.33.33 1.22.94 2.1.29.54.81 1.16.45.6 1.21 1.37.66.73 1.7 1.72.93.91 2.33 2.18 1.25 1.16 3.06 2.78.81.73 1.79 1.61 2.94 2.63.69.61 1.68 1.53.89.81 2.03 1.87 1.05.97 2.3 2.14 1.18 1.1 2.49 2.33 2.53 2.37 5.3 5.03 7.73 7.39 1.27 1.23 2.36 2.26 1.15 1.1 2.14 2.01 1.04.98 1.93 1.79.95.86 1.75 1.57 1.71 1.52 2.97 2.45 1.42 1.14 2.52 1.78 1.22.81 2.24 1.21 1.11.55 2.14.77 1.07.33 2.21.44 3.58.4 1.27.09 1.94.07.88.02 1.24-.08.54-.06.62-.24.36-.56v-.2l.19-.31.13-.14.44-.17.25-.07.69-.03 1.3.11.82.12 1.3-.08.27-.04.37-.16.24-.33v-.26l.44-.23 1.06.13.41.16h.65l.44-.43v-.12l.26-.31.16-.17.53-.39 2.3-1.17.22-.09.7-.44.39-.26.98-.74.53-.4 1.23-1 .65-.54 1.44-1.23 1.48-1.28 3.37-3.07 5.33-5.08 1.8-1.76 3.33-3.21.8-.76 1.49-1.41.72-.68 1.3-1.22.62-.58 1.08-.99.51-.46.82-.72.37-.32.52-.43.41-.26h.04l.23-.15.14-.11.46-.38.26-.22.71-.64.4-.36 1-.93.54-.5 1.31-1.24.7-.67 1.67-1.59.87-.84 2.04-1.96 1.07-1.03 2.44-2.36 1.27-1.23 2.87-2.8 1.5-1.45 3.33-3.25 1.73-1.68 3.83-3.74 1.98-1.93 4.35-4.26 2.24-2.19 4.91-4.8 2.52-2.47 5.48-5.37 2.82-2.76 6.09-5.97 9.86-9.66 2.61-2.56 4.78-4.68 2.32-2.28 4.24-4.15 2.05-2.01 3.73-3.65 1.8-1.76 3.26-3.18 1.57-1.54 2.81-2.74 1.36-1.32 2.41-2.34 1.15-1.12 2.04-1.97.98-.94 1.7-1.63.81-.77 1.39-1.33.67-.62 1.13-1.05.53-.5.9-.81.42-.38.69-.6.65-.56.85-.63.86-.49.25-.1.83-.18.46-.09 1.15-.15 3.95-.26 1.06-.02 1.6.1.74.08 1.2.37.58.24 1.12.78 1.95 1.78.75.75 1.05 1.22.46.59.57 1.16.24.6.22 1.46.11 2.92v5.3l-10.82 10.55-1.45 1.41-3.13 3.04-1.6 1.55-3.45 3.33-1.76 1.7-3.8 3.65-1.94 1.87-4.18 4.01-2.14 2.05-4.59 4.38-2.34 2.24-5.03 4.79-2.57 2.45-5.49 5.23-8.78 8.35-2.1 1.99-4.55 4.35-2.28 2.19-4.52 4.36-2.21 2.14-3.96 3.85-.93.91-1.66 1.63-2.14 2.11-1.01 1.01-2.28 2.24-1.17 1.16-2.56 2.51-1.31 1.28-2.79 2.72-1.41 1.38-2.96 2.87-2.99 2.9-6.27 6.04-3.14 3.03-6.23 5.97-3.08 2.94-5.75 5.49-1.39 1.32-2.62 2.47-1.27 1.21-2.34 2.2-1.14 1.07-2.01 1.88-.96.9-1.64 1.51-.76.7-1.2 1.08-1.24 1.09-1.41 1.16-3.03 2.1-1.55 1.01-3.27 1.77-1.66.84-3.47 1.42-5.36 1.71-.96.25-2.21.39-1.14.18-2.51.27-2.56.22-5.55.06-2.77-.03-5.33-.46-1.27-.15-2.36-.38-1.14-.21z" style="fill: rgb(25, 58, 65);" id="object-10"/></g><path style="stroke: none; fill: none; fill-opacity: 0;" d="M -1157.924 -122.41 L -1157.924 193.59 L 1042.076 193.59 L 1042.076 -122.41 L -1157.924 -122.41 Z"/><path style="fill:#1c363d; stroke:none;" d="M -4.911 -300.465 C 3.049 -308.511 11.449 -318.17 22.419 -322.063 C 47.549 -330.984 79.369 -304.62 66.249 -278.001 C 56.019 -257.239 31.199 -237.099 14.419 -221.263 C 7.609 -214.835 -4.431 -206.78 -7.581 -197.804 L -11.581 -197.804 L -11.581 -193.804 C -16.781 -191.84 -17.411 -186.909 -14.121 -182.552 C -7.291 -173.502 6.329 -162.107 8.419 -150.804 L 12.419 -150.804 C 14.519 -144.81 20.719 -140.198 24.849 -135.467 C 34.479 -124.449 44.609 -113.904 53.769 -102.489 C 60.709 -93.829 70.599 -82.38 71.349 -70.804 C 72.749 -49.193 48.039 -30.997 27.529 -38.087 C -0.371 -47.734 -17.481 -82.474 -35.971 -103.458 C -42.621 -111.011 -55.741 -138.177 -67.461 -136.653 C -78.811 -135.179 -74.581 -106.714 -74.581 -98.804 C -74.581 -74.136 -70.911 -34.63 -107.581 -37.432 C -115.841 -38.063 -121.071 -42.346 -128.581 -44.804 L -128.581 -48.804 L -132.581 -48.804 C -134.301 -54.009 -137.951 -58.334 -139.221 -63.863 C -144.131 -85.339 -140.581 -110.844 -140.581 -132.804 L -140.581 -238.804 C -140.581 -258.494 -146.801 -291.167 -137.001 -308.689 C -124.971 -330.194 -90.871 -326.795 -79.481 -306.499 C -67.691 -285.497 -73.561 -249.949 -75.581 -226.804 C -45.631 -241.68 -27.781 -277.357 -4.911 -300.465 Z M -955.581 -98.804 L -955.581 -257.804 C -955.581 -277.898 -960.996 -304.469 -942.374 -318.056 C -924.054 -331.422 -896.891 -320.804 -890.432 -299.745 C -885.492 -283.64 -889.581 -260.634 -889.581 -243.804 C -889.581 -237.236 -893.109 -215.696 -884.49 -214.02 C -863.51 -209.941 -837.986 -213.804 -816.581 -213.804 C -811.468 -213.804 -798.012 -211.418 -794.731 -216.216 C -791.227 -221.34 -793.581 -233.776 -793.581 -239.804 C -793.581 -265.509 -803.325 -322.093 -763.581 -322.794 C -743.948 -323.14 -729.338 -313.111 -726.755 -292.689 C -724.35 -273.676 -726.581 -252.978 -726.581 -233.804 L -726.581 -115.804 C -726.581 -97.202 -720.747 -66.496 -733.1 -51.004 C -747.334 -33.152 -773.43 -32.104 -787.345 -51.116 C -800.767 -69.454 -794.581 -102.393 -794.581 -123.804 C -794.581 -129.569 -791.649 -147.138 -797.879 -150.087 C -802.998 -152.51 -812.004 -150.804 -817.581 -150.804 C -834.284 -150.804 -850.879 -150.032 -867.58 -149.794 C -872.826 -149.72 -886.206 -151.134 -888.736 -145.614 C -891.396 -139.813 -889.581 -130.085 -889.581 -123.804 C -889.581 -104.389 -884.692 -77.361 -890.336 -58.804 C -894.117 -46.37 -921.888 -24.492 -932.581 -40.804 C -958.799 -39.735 -955.581 -82.892 -955.581 -98.804 Z M 631.419 -279.804 L 631.419 -224.804 C 631.419 -161.25 637.819 -94.503 576.329 -55.837 C 565.929 -49.295 553.129 -45.267 541.359 -42.081 C 526.439 -38.042 503.509 -38.967 489.109 -43.952 C 474.309 -49.078 460.479 -53.142 447.479 -62.772 C 396.329 -100.663 402.419 -165.459 402.419 -221.804 C 402.419 -248.907 392.139 -301.377 418.619 -318.596 C 436.759 -330.395 466.159 -319.859 470.039 -297.804 C 479.039 -246.781 460.239 -191.269 474.949 -141 C 486.979 -99.876 535.689 -103.89 555.969 -135.541 C 564.029 -148.113 561.419 -165.661 561.419 -179.804 L 561.419 -265.804 C 561.419 -279.616 559.269 -296.315 566.609 -308.794 C 576.529 -325.672 602.119 -327.24 616.659 -316.128 C 621.769 -312.225 627.779 -306.644 627.419 -299.804 C 633.069 -295.71 631.419 -286.041 631.419 -279.804 Z M -547.581 -212.804 C -530.115 -212.804 -506.392 -217.195 -490.896 -207.871 C -470.8 -195.779 -473.878 -163.538 -495.581 -154.733 C -517.937 -145.663 -548.863 -150.804 -572.581 -150.804 C -579.65 -150.804 -595.213 -153.727 -601.169 -149.654 C -606.498 -146.011 -604.986 -116.95 -603.169 -110.95 C -600.377 -101.732 -573.059 -105.468 -565.581 -106.372 C -539.589 -109.513 -500.261 -111.792 -475.571 -103.249 C -459.009 -97.52 -453.895 -78.877 -458.942 -63.919 C -463.744 -49.686 -479.057 -41.578 -493.581 -40.864 C -534.035 -38.875 -575.073 -40.804 -615.581 -40.804 C -634.716 -40.804 -653.811 -40.7 -664.052 -60.236 C -672.909 -77.131 -669.581 -102.211 -669.581 -120.804 L -669.581 -247.804 C -669.581 -266.59 -672.109 -292.509 -659.771 -308.095 C -648.836 -321.906 -631.549 -321.804 -615.581 -321.804 L -510.581 -321.804 C -494.163 -321.804 -474.847 -322.444 -462.927 -308.773 C -445.642 -288.949 -457.11 -258.016 -482.581 -253.196 C -509.942 -248.018 -542.703 -252.804 -570.581 -252.804 C -577.424 -252.804 -596.821 -256.13 -601.864 -251.087 C -607.55 -245.4 -603.581 -221.658 -603.581 -213.804 C -584.994 -212.183 -566.25 -212.804 -547.581 -212.804 Z M 812.419 -321.804 C 835.129 -321.804 862.199 -325.856 884.419 -321.247 C 907.599 -316.438 919.689 -289.7 907.919 -268.828 C 895.749 -247.253 868.139 -252.804 847.419 -252.804 C 840.469 -252.804 824.799 -255.788 820.699 -248.648 C 815.059 -238.813 819.419 -216.058 819.419 -204.804 L 819.419 -91.804 C 819.419 -71.183 822.509 -40.71 794.419 -37.031 C 776.829 -34.727 759.049 -42.284 754.049 -60.804 C 751.679 -69.592 753.419 -80.739 753.419 -89.804 C 753.419 -127.478 752.419 -165.199 752.419 -202.804 C 752.419 -214.654 756.959 -238.299 751.129 -248.703 C 747.079 -255.949 730.469 -252.804 723.419 -252.804 C 701.609 -252.804 682.309 -250.807 672.629 -274.807 C 663.379 -297.757 681.319 -318.301 703.419 -321.361 C 738.429 -326.21 777.049 -321.804 812.419 -321.804 Z M -337.013 -311.935 C -299.574 -327.415 -254.061 -322.258 -220.381 -299.859 C -208.501 -291.952 -192.671 -279.451 -189.641 -264.689 C -185.441 -244.266 -206.501 -219.134 -228.381 -223.116 C -245.671 -226.26 -257.791 -244.135 -275.581 -248.543 C -317.996 -259.056 -356.526 -221.024 -356.526 -179.804 C -356.526 -142.696 -318.425 -102.953 -279.777 -112.316 C -261.941 -116.637 -250.461 -135.263 -233.551 -138.511 C -211.811 -142.686 -184.381 -118.353 -189.101 -95.863 C -193.411 -75.342 -218.631 -59.321 -236.381 -52.251 C -285.514 -32.683 -345.771 -40.133 -383.487 -79.863 C -421.55 -119.956 -435.809 -179.05 -416.895 -231.804 C -412.939 -242.839 -408.091 -253.251 -401.22 -262.787 C -397.162 -268.42 -389.873 -273.266 -387.581 -279.804 L -383.581 -279.804 L -383.581 -283.804 L -379.581 -283.804 C -376.845 -298.998 -349.123 -306.927 -337.013 -311.935 Z M 133.439 -281.804 C 173.029 -322.847 236.689 -331.371 287.329 -306.729 C 305.129 -298.068 318.309 -284.455 330.259 -269.171 C 387.019 -196.568 366.109 -86.818 278.379 -49.323 C 262.249 -42.428 244.739 -40.804 227.419 -40.804 C 210.349 -40.804 193.179 -43.359 177.419 -50.268 C 123.969 -73.708 90.419 -125.933 90.419 -183.804 C 90.419 -198.432 93.209 -213.024 98.059 -226.8 C 99.579 -231.126 101.999 -239.25 106.419 -240.804 C 104.879 -254.182 124.879 -272.92 133.439 -281.804 Z M -1218.915 -94.894 C -1225.625 -103.522 -1231.247 -113.84 -1235.788 -123.804 C -1253.021 -161.609 -1249.693 -216.444 -1227.756 -251.789 C -1192.112 -309.218 -1118.059 -337.532 -1055.415 -307.995 C -1037.039 -299.33 -1015.93 -284.49 -1008.103 -264.804 C -1000.345 -245.29 -1026.526 -219.226 -1045.542 -221.948 C -1054.524 -223.233 -1060.46 -232.094 -1067.751 -236.493 C -1072.386 -239.29 -1083.852 -243.885 -1085.581 -248.804 C -1092.976 -247.453 -1101.047 -250.466 -1108.581 -250.63 C -1123.874 -250.963 -1139.519 -245.154 -1151.122 -235.414 C -1188.317 -204.189 -1184.526 -131.494 -1133.466 -115.004 C -1117.344 -109.797 -1099.305 -109.222 -1083.581 -116.235 C -1063.385 -125.242 -1049.586 -150.277 -1025.903 -132.164 C -1022.777 -129.772 -1019.518 -127.807 -1016.941 -124.754 C -989.555 -92.307 -1027.184 -62.902 -1056.581 -50.605 C -1092.273 -35.675 -1135.226 -37.21 -1169.581 -54.534 C -1182.164 -60.879 -1194.244 -75.39 -1206.581 -79.804 C -1208.403 -85.739 -1215.124 -90.02 -1218.915 -94.894 Z M 181.35 -129.355 L 185.35 -129.355 L 185.35 -125.355 C 192.8 -123.225 198.86 -117.851 206.35 -115.477 C 215.54 -112.566 225.83 -113.096 235.35 -113.382 C 245.13 -113.676 254.92 -117.162 263.35 -121.919 C 326.94 -157.808 287.76 -257.875 219.35 -251.552 C 210.41 -250.725 201.65 -248.768 194.18 -243.57 C 184.63 -236.933 177.64 -231.179 171.09 -221.355 C 163.03 -209.275 159.9 -194.755 160.38 -180.355 C 161.08 -159.169 175.3 -147.534 181.35 -129.355 Z"/></g></svg>