<svg class="nav-icon" xmlns="http://www.w3.org/2000/svg" viewBox="0 0 126.932 126.866"><path d="M101.56 126.271c-.802-.543-1.115-1.231-3.545-7.796l-2.93-7.454c-.146-.139-3.479-1.454-7.408-2.922l-7.598-3.214c-1.165-1.398-.716-3.521.906-4.288.479-.227 3.789-1.501 7.354-2.831l6.783-2.733c.165-.172 1.448-3.387 2.85-7.145l2.962-7.461c.919-1.402 3.524-1.402 4.443 0 .227.346 1.56 3.704 2.962 7.461l2.85 7.136c.165.168 3.396 1.446 7.179 2.841l7.538 3.03c.766.572 1.201 1.833.96 2.79-.367 1.464-1.16 1.893-8.366 4.53l-7.276 2.812c-.146.136-1.464 3.487-2.93 7.447-2.43 6.566-2.743 7.253-3.545 7.796-.484.327-1.201.595-1.595.595s-1.111-.268-1.595-.595zm-55.952-16.445c-.437-.193-1.009-.592-1.271-.886s-3.479-6.985-7.147-14.868l-6.67-14.332-10.447-4.857L5.95 68.35C.465 65.848-.713 64.429.36 61.621c.581-1.521 1.144-1.886 7.28-4.709l13.878-6.448 8.984-4.196 5.375-11.493 6.462-13.951c1.332-3.013 2.014-4.053 2.955-4.505 1.355-.651 2.455-.677 3.679-.085 1.359.658.903-.219 9.305 17.876l5.642 12.151 11.217 5.255 13.069 6.046c2.847 1.216 4.937 2.428 5.49 3.182 1.208 1.647.707 4.495-.968 5.507-.45.272-2.365 1.207-4.257 2.08l-14.023 6.525-10.583 4.939-4.614 9.976-9.111 19.063c-1.206 1.33-2.917 1.705-4.531.993zm4.617-28.667c3.093-6.884 3.653-7.923 5.131-9.526 1.438-1.56 3.484-2.708 10.294-5.774 3.165-1.425 5.755-2.668 5.755-2.762s-1.994-1.104-4.432-2.243c-11.376-5.318-11.838-5.673-14.456-11.099a308.46 308.46 0 0 1-3.343-7.225c-.922-2.074-1.746-3.77-1.831-3.77s-.861 1.518-1.723 3.373c-3.102 6.674-5.125 10.623-6 11.716-1.459 1.822-3.723 3.183-10.35 6.221-3.456 1.585-6.284 2.95-6.284 3.033s2.53 1.265 5.622 2.626c10.329 4.545 10.495 4.689 14.211 12.32l3.449 7.21c.48 1.055.958 1.918 1.062 1.918s1.406-2.709 2.894-6.019zm51.153-34.396c-.696-.61-1.245-1.863-3.391-7.739-1.408-3.856-2.696-7.152-2.863-7.323s-3.518-1.512-7.447-2.979c-4.452-1.662-7.315-2.873-7.598-3.213-1.165-1.398-.716-3.521.906-4.288.479-.227 3.789-1.501 7.354-2.831s6.618-2.56 6.783-2.733 1.448-3.387 2.85-7.145 2.735-7.115 2.962-7.461c.919-1.402 3.524-1.402 4.443 0 .227.346 1.56 3.704 2.962 7.461s2.685 6.969 2.85 7.136 3.396 1.446 7.179 2.841 7.175 2.759 7.538 3.03c.766.572 1.201 1.833.96 2.79-.367 1.464-1.16 1.893-8.366 4.53-3.856 1.411-7.131 2.677-7.276 2.812s-1.464 3.487-2.93 7.447c-2.43 6.566-2.743 7.253-3.545 7.796-1.2.812-2.344.767-3.372-.132z"></path></svg>