<?xml version="1.0" encoding="UTF-8" standalone="no"?>
<!-- Created with Inkscape (http://www.inkscape.org/) -->

<svg
   width="121.44375mm"
   height="126.81616mm"
   viewBox="0 0 121.44375 126.81616"
   version="1.1"
   id="svg5"
   xml:space="preserve"
   xmlns="http://www.w3.org/2000/svg"
   xmlns:svg="http://www.w3.org/2000/svg"><defs
     id="defs2" /><g
     id="layer1"
     transform="translate(-45.334555,-82.24527)"><path
       style="fill:#000000;stroke-width:0.264583"
       d="m 100.23559,208.81585 c -3.384341,-0.34983 -7.010379,-1.00807 -8.820653,-1.60123 -1.304425,-0.42742 -1.982301,-0.85978 -3.051781,-1.94648 -1.936149,-1.96733 -2.719758,-3.7782 -4.06337,-9.39017 -0.644826,-2.69329 -1.302954,-5.2403 -1.462505,-5.66001 -0.330023,-0.86815 -2.366217,-2.2796 -3.288615,-2.2796 -0.33401,0 -3.0759,0.72766 -6.093092,1.61702 -5.218004,1.53809 -5.596959,1.61171 -7.762822,1.50816 -4.06619,-0.19441 -6.005703,-1.58669 -10.435005,-7.4908 -3.667757,-4.889 -6.12245,-9.36464 -8.489071,-15.47813 -1.233987,-3.18765 -1.280692,-3.40779 -1.291066,-6.08541 -0.0092,-2.37473 0.07353,-2.9318 0.56975,-3.83646 0.925931,-1.68806 2.610706,-3.54568 6.343691,-6.9945 3.523202,-3.255 4.068196,-4.0203 4.044071,-5.67884 -0.02154,-1.48112 -0.606541,-2.25796 -4.263131,-5.66115 -5.730923,-5.33377 -6.837436,-7.05498 -6.837436,-10.6358 0,-3.70301 3.477575,-11.93943 7.82052,-18.52242 2.614964,-3.96374 6.004239,-8.01976 7.507496,-8.9844 3.32265,-2.13214 5.48359,-2.13486 12.729011,-0.0161 2.97702,0.87058 5.618713,1.58496 5.870429,1.5875 0.907285,0.009 2.603108,-0.86511 3.139652,-1.61861 0.328811,-0.46177 1.008761,-2.69728 1.700953,-5.5923 0.634241,-2.65266 1.333881,-5.33034 1.554758,-5.9504 0.769056,-2.15897 2.879143,-4.69826 4.672216,-5.62257 5.788374,-2.98384 25.6653,-2.98384 31.45367,0 1.79308,0.92431 3.90316,3.4636 4.67222,5.62257 0.22088,0.62006 0.92052,3.29774 1.55476,5.9504 0.69219,2.89502 1.37214,5.13053 1.70095,5.5923 0.52466,0.73681 2.2184,1.62323 3.10163,1.62323 0.2308,0 2.92378,-0.72844 5.9844,-1.61876 5.23624,-1.52319 5.69315,-1.61201 7.73958,-1.5046 3.70811,0.19462 6.15956,1.80826 9.69315,6.38041 5.40373,6.99195 10.54835,18.05032 10.54835,22.67371 0,3.58082 -1.10651,5.30203 -6.83744,10.6358 -1.98748,1.84975 -3.75706,3.69563 -3.9324,4.10196 -0.43669,1.01199 -0.41996,2.59995 0.0367,3.48303 0.20865,0.40348 1.9985,2.2324 3.97745,4.06427 5.80494,5.37349 6.63327,6.7417 6.6103,10.91856 -0.0122,2.21934 -0.10557,2.61986 -1.37306,5.89051 -2.36705,6.10798 -5.38708,11.63455 -8.78584,16.07785 -2.40094,3.13881 -4.05465,4.70965 -5.9949,5.69447 -1.48134,0.75188 -2.08425,0.90022 -4.03866,0.99367 -2.19118,0.10476 -2.55094,0.0351 -7.78317,-1.50719 -3.01719,-0.88936 -5.7276,-1.61702 -6.02314,-1.61702 -0.81227,0 -2.57163,0.98342 -3.04104,1.69983 -0.22873,0.34908 -0.94829,2.87762 -1.59903,5.61899 -1.4083,5.93269 -2.35433,8.13628 -4.32645,10.07754 -1.03591,1.0197 -1.7901,1.49344 -3.01412,1.8933 -4.66341,1.52347 -14.00931,2.25027 -20.41791,1.58783 z m 11.09754,-11.9032 c 2.12619,-0.16357 3.84382,-0.41855 4.01025,-0.59531 0.16011,-0.17005 0.83104,-2.46163 1.49094,-5.09239 0.65991,-2.63076 1.52347,-5.44414 1.91901,-6.25195 1.69163,-3.45476 4.56022,-6.04647 8.48731,-7.66811 2.00021,-0.82597 2.26118,-0.86702 5.5387,-0.87135 3.34718,-0.004 3.55985,0.0306 7.91641,1.30197 l 4.47682,1.30652 1.01924,-1.17423 c 2.55075,-2.93861 5.93548,-8.67364 7.61857,-12.90875 l 0.8781,-2.20952 -4.10729,-4.00819 c -3.60697,-3.51993 -4.22469,-4.24991 -5.07102,-5.99256 -2.55563,-5.26219 -2.27182,-10.91227 0.79286,-15.78456 0.97332,-1.54739 2.03156,-2.66469 5.76815,-6.09007 l 2.62308,-2.40462 -0.61731,-1.55256 c -0.97025,-2.44022 -3.3285,-7.0645 -4.67,-9.15737 -1.48544,-2.31744 -3.98922,-5.49207 -4.3315,-5.49207 -0.13699,0 -2.36434,0.60441 -4.94967,1.34313 -7.31355,2.08974 -9.58106,2.03509 -14.3579,-0.34605 -2.9255,-1.4583 -5.38947,-3.88035 -6.73058,-6.61606 -0.79429,-1.62026 -3.32358,-10.16502 -3.32358,-11.22811 0,-0.63242 -0.98182,-0.84867 -5.35109,-1.1786 -3.52948,-0.26651 -5.23441,-0.26569 -8.70728,0.004 -2.375137,0.18458 -4.49497,0.43439 -4.710735,0.55513 -0.250714,0.14031 -0.75715,1.87558 -1.403229,4.80806 -1.332851,6.04969 -2.165389,7.83548 -4.907594,10.52679 -3.515572,3.45032 -7.281119,4.92269 -12.078054,4.72267 -2.183649,-0.0911 -3.466013,-0.3427 -7.138633,-1.40082 l -4.476824,-1.28982 -1.029512,1.17423 c -2.430343,2.77196 -6.156878,9.1896 -7.879389,13.56946 l -0.608529,1.54732 4.108053,4.00893 c 3.607252,3.52021 4.225573,4.25084 5.072036,5.9933 1.920679,3.95377 2.208808,8.20389 0.833845,12.29983 -1.162267,3.46234 -2.216801,4.82781 -7.392818,9.57268 l -2.620798,2.40249 0.992719,2.48074 c 1.696712,4.23995 4.9212,9.67382 7.511222,12.65783 l 1.025305,1.18127 3.14784,-0.89214 c 8.461685,-2.39814 9.536668,-2.52474 12.976937,-1.52829 2.801656,0.81147 5.312981,2.26377 7.528398,4.35369 2.620822,2.47235 3.642627,4.66378 4.905589,10.52086 0.533437,2.47386 1.10028,4.64074 1.259652,4.81529 0.628862,0.68878 8.904199,1.02243 14.562299,0.58713 z m -8.40444,-27.7598 c -6.358027,-0.79058 -12.904821,-4.83968 -16.481122,-10.19336 -1.28537,-1.92417 -2.865586,-5.3744 -3.482507,-7.60366 -0.652354,-2.35731 -0.643424,-9.17053 0.01516,-11.57163 2.298549,-8.38011 8.909393,-14.98153 17.255369,-17.23078 3.01663,-0.81299 8.62503,-0.81299 11.64166,0 7.02603,1.89352 12.8023,6.78673 15.77184,13.36068 4.05285,8.97221 2.15609,19.43021 -4.7825,26.3688 -3.0433,3.0433 -6.95338,5.31424 -10.86704,6.31149 -2.39144,0.60937 -6.58506,0.86755 -9.07087,0.55846 z m 6.31329,-12.0522 c 5.49844,-1.43179 9.28331,-7.23326 8.52324,-13.06448 -0.79464,-6.09648 -6.49161,-10.75429 -12.55799,-10.26734 -2.80106,0.22484 -4.92567,1.14747 -6.942662,3.01489 -4.095009,3.79135 -5.159729,9.06924 -2.823853,13.998 0.968968,2.04455 2.884152,4.16858 4.738645,5.25538 2.41049,1.41265 6.07189,1.84233 9.06262,1.06355 z"
       id="path1772" /></g></svg>
